# AST/ASF file generated using VICON BodyLanguage
# -----------------------------------------------
:version 1.10
:name VICON
:units
  mass 1.0
  length 0.45
  angle deg
:documentation
   .ast/.asf automatically generated from VICON data using
   VICON BodyBuilder and BodyLanguage model FoxedUp or BRILLIANT.MOD
:root
   order TX TY TZ RX RY RZ
   axis XYZ
   position 0 0 0  
   orientation 0 0 0 
:bonedata
  begin
     id 1 
     name lhipjoint
     direction 0.558404 -0.748506 0.357664 
     length 2.4234 
     axis 0 0 0  XYZ
  end
  begin
     id 2 
     name lfemur
     direction 0.34202 -0.939693 0  
     length 7.14567  
     axis 0 0 20  XYZ
    dof rx ry rz
    limits (-160.0 20.0)
           (-70.0 70.0)
           (-60.0 70.0)
  end
  begin
     id 3 
     name ltibia
     direction 0.34202 -0.939693 0   
     length 8.13956   
     axis 0 0 20   XYZ
    dof rx
    limits (-10.0 170.0)
  end
  begin
     id 4 
     name lfoot
     direction 0.0791314 -0.217412 0.972867   
     length 2.00134   
     axis -90 7.62852e-016 20   XYZ
    dof rx rz
    limits (-45.0 90.0)
           (-70.0 20.0)
  end
  begin
     id 5 
     name ltoes
     direction 1.53547e-011 -4.21922e-011 1   
     length 1.00735   
     axis -90 7.62852e-016 20   XYZ
    dof rx
    limits (-90.0 20.0)
  end
  begin
     id 6 
     name rhipjoint
     direction -0.496392 -0.78327 0.374276   
     length 2.31584  
     axis 0 0 0  XYZ 
  end
  begin
     id 7 
     name rfemur
     direction -0.34202 -0.939693 0   
     length 7.47417   
     axis 0 0 -20   XYZ
    dof rx ry rz
    limits (-160.0 20.0)
           (-70.0 70.0)
           (-70.0 60.0)
  end
  begin
     id 8 
     name rtibia
     direction -0.34202 -0.939693 0   
     length 7.69071   
     axis 0 0 -20   XYZ
    dof rx
    limits (-10.0 170.0)
 end
 begin
     id 9 
     name rfoot
     direction -0.103069 -0.28318 0.953512   
     length 2.16135  
     axis -90 -7.62852e-016 -20   XYZ
    dof rx rz
    limits (-45.0 90.0)
           (-20.0 70.0)
  end
  begin
     id 10 
     name rtoes
     direction -1.53581e-011 -4.21904e-011 1   
     length 1.07867   
     axis -90 -7.62852e-016 -20   XYZ
    dof rx
    limits (-90.0 20.0)
  end
  begin
     id 11 
     name lowerback
     direction -0.0258961 0.994776 -0.0987407   
     length 2.19412   
     axis 0 0 0   XYZ
    dof rx ry rz
    limits (-20.0 45.0)
           (-30.0 30.0)
           (-30.0 30.0)
  end
  begin
     id 12 
     name upperback
     direction 0.0402454 0.999185 0.00320666   
     length 2.18445   
     axis 0 0 0   XYZ
    dof rx ry rz
    limits (-20.0 45.0)
           (-30.0 30.0)
           (-30.0 30.0)
  end
  begin
     id 13 
     name thorax
     direction 0.0519376 0.997415 0.0496558   
     length 2.21487   
     axis 0 0 0   XYZ
    dof rx ry rz
    limits (-20.0 45.0)
           (-30.0 30.0)
           (-30.0 30.0)
  end
  begin
     id 14 
     name lowerneck
     direction -0.0921276 0.983211 0.157506   
     length 1.61201   
     axis 0 0 0   XYZ
    dof rx ry rz
    limits (-20.0 45.0)
           (-30.0 30.0)
           (-30.0 30.0)
  end
  begin
     id 15 
     name upperneck
     direction 0.0820814 0.98162 -0.172292   
     length 1.65275   
     axis 0 0 0   XYZ
    dof rx ry rz
    limits (-20.0 45.0)
           (-30.0 30.0)
           (-30.0 30.0)
  end
  begin
     id 16
     name head
     direction 0.0336554 0.996413 -0.0776455  
     length 1.66415  
     axis 0 0 0   XYZ
    dof rx ry rz
    limits (-20.0 45.0)
           (-30.0 30.0)
           (-30.0 30.0)
  end
  begin
     id 17 
     name lclavicle
     direction 0.94696 0.284418 -0.149576  
     length 3.41447  
     axis 0 0 0   XYZ
    dof ry rz
    limits (-20.0 10.0)
           (0.0 20.0)
  end
  begin
     id 18 
     name lhumerus
     direction 1 -0.000130264 -9.81312e-005   
     length 5.19964   
     axis 180 -30 -90   XYZ
    dof rx ry rz
    limits (-60.0 90.0)
           (-90.0 90.0)
           (-90.0 90.0)
  end
  begin
     id 19
     name lradius
     direction 1 -4.48961e-011 1.43854e-026   
     length 3.32189   
     axis 180 -30 -90   XYZ
    dof rx
    limits (-10.0 170.0)
  end
  begin
     id 20
     name lwrist
     direction 1 -4.48958e-011 3.1502e-026   
     length 1.66095   
     axis -1.97692e-014 90 90   XYZ
    dof ry
    limits (-180.0 0.0)
 end
  begin
     id 21 
     name lhand
     direction 1 -4.48927e-011 6.3004e-026   
     length 0.645616   
     axis -4.02019e-014 90 90   XYZ
    dof rx rz
    limits (-90.0 90.0)
           (-45.0 45.0)
  end
  begin
     id 22 
     name lfingers
     direction 1 -4.4904e-011 1.26008e-025   
     length 0.520512   
     axis -8.04039e-014 90 90   XYZ
    dof rx
    limits (0.0 90.0)
  end
  begin
     id 23
     name lthumb
     direction 0.707107 -6.34947e-011 0.707107   
     length 0.747354   
     axis -90 45 2.85299e-015   XYZ
    dof rx rz
    limits (-45.0 45.0)
           (-45.0 45.0)
  end
  begin
     id 24 
     name rclavicle
     direction -0.909391 0.383475 -0.161107   
     length 3.25176  
     axis 0 0 0   XYZ 
    dof ry rz
    limits (-10.0 20.0)
           (-20.0 0.0)
  end
  begin
     id 25 
     name rhumerus
     direction -1 -4.48965e-011 -1.81384e-027  
     length 5.6595   
     axis 180 30 90   XYZ
    dof rx ry rz
    limits (-90.0 60.0)
           (-90.0 90.0)
           (-90.0 90.0)
  end
  begin
     id 26 
     name rradius
     direction -1 -4.48996e-011 -8.09397e-027   
     length 3.37604   
     axis 180 30 90   XYZ
    dof rx
    limits (-10.0 170.0)
  end
  begin
     id 27 
     name rwrist
     direction -1 -4.48927e-011 -1.56669e-026   
     length 1.68802   
     axis 1.21142e-014 -90 -90   XYZ
    dof ry
    limits (-180.0 0.0)
  end
  begin
     id 28
     name rhand
     direction -1 -4.48912e-011 -3.13339e-026   
     length 0.824702   
     axis 1.99937e-014 -90 -90   XYZ
    dof rx rz
    limits (-90.0 90.0)
           (-45.0 45.0)
  end
  begin
     id 29
     name rfingers
     direction -1 -4.49011e-011 -6.26677e-026   
     length 0.664896   
     axis 3.99874e-014 -90 -90   XYZ
    dof rx
    limits (0.0 90.0)
  end
  begin
     id 30
     name rthumb
     direction -0.707107 -6.34931e-011 0.707107   
     length 0.954662   
     axis -90 -45 -2.85299e-015   XYZ
    dof rx rz
    limits (-45.0 45.0)
           (-45.0 45.0)
  end
:hierarchy
  begin
    root lhipjoint rhipjoint lowerback
    lhipjoint lfemur
    lfemur ltibia
    ltibia lfoot
    lfoot ltoes
    rhipjoint rfemur
    rfemur rtibia
    rtibia rfoot
    rfoot rtoes
    lowerback upperback
    upperback thorax
    thorax lowerneck lclavicle rclavicle
    lowerneck upperneck
    upperneck head
    lclavicle lhumerus
    lhumerus lradius
    lradius lwrist
    lwrist lhand lthumb
    lhand lfingers
    rclavicle rhumerus
    rhumerus rradius
    rradius rwrist
    rwrist rhand rthumb
    rhand rfingers
  end

#!OML:ASF F:\VICON\USERDATA\INSTALL\rory3\rory3.ASF
:FULLY-SPECIFIED
:DEGREES
551
root 5.68334 17.1726 -8.04974 23.0424 -30.609 -17.0254
lowerback 10.9613 0.792871 3.94708
upperback -0.0462065 1.89305 6.22891
thorax -6.3106 0.879421 4.05783
lowerneck -8.28247 -7.55792 -14.862
upperneck 23.5018 -13.8758 21.5602
head 11.6692 -5.83686 8.80589
rclavicle 4.21579e-014 1.44119e-015
rhumerus -6.89546 -5.03151 -59.5622
rradius 75.3664
rwrist -19.5181
rhand -15.7831 17.5438
rfingers 7.12502
rthumb 10.4094 -12.1786
lclavicle 4.21579e-014 1.44119e-015
lhumerus -10.235 38.1078 26.5323
lradius 27.5754
lwrist -12.8686
lhand -0.870492 33.6336
lfingers 7.12502
lthumb 24.7563 62.0515
rfemur -5.43357 0.760998 27.5175
rtibia 40.0433
rfoot -9.30183 -9.4125
rtoes -21.4821
lfemur -63.6171 19.0686 -9.51262
ltibia 76.8024
lfoot -15.1847 -6.68434
ltoes -16.7267
552
root 5.60234 17.2757 -7.77729 23.2329 -30.518 -17.5998
lowerback 10.0719 0.834622 4.26514
upperback 0.35027 1.89238 6.59111
thorax -5.39105 0.877074 4.26341
lowerneck -8.43741 -7.72444 -15.3867
upperneck 23.3912 -14.0626 21.835
head 11.778 -5.93863 8.98173
rclavicle 1.41137e-014 3.42904e-014
rhumerus -5.01086 -4.82714 -59.1529
rradius 76.5198
rwrist -19.2626
rhand -15.3229 18.3876
rfingers 7.12502
rthumb 10.8533 -11.3119
lclavicle 1.41137e-014 3.42904e-014
lhumerus -11.3893 40.5583 24.6929
lradius 27.5374
lwrist -12.6596
lhand -1.61829 33.8397
lfingers 7.12502
lthumb 24.0395 62.3542
rfemur -3.50129 0.456517 27.4937
rtibia 37.3645
rfoot -5.97628 -7.94481
rtoes -20.4719
lfemur -63.4121 18.6245 -8.98981
ltibia 73.7328
lfoot -14.3806 -7.19094
ltoes -16.2868
553
root 5.51736 17.3874 -7.48353 23.3639 -30.5076 -18.1153
lowerback 9.58947 0.914512 4.39178
upperback 0.274435 1.99585 7.07201
thorax -5.21963 0.929915 4.69633
lowerneck -7.81829 -7.80228 -16.0316
upperneck 23.4268 -14.1465 21.8349
head 11.7342 -6.07251 9.10901
rclavicle -5.99336e-014 -7.95139e-016
rhumerus -3.80703 -4.18063 -58.4625
rradius 77.5133
rwrist -19.0288
rhand -14.9999 19.1098
rfingers 7.12502
rthumb 11.1648 -10.5731
lclavicle -5.99336e-014 -7.95139e-016
lhumerus -13.6119 41.3176 22.5729
lradius 28.0406
lwrist -11.6716
lhand -2.48743 35.0738
lfingers 7.12502
lthumb 23.2058 63.6957
rfemur -1.49978 0.161349 27.28
rtibia 34.5602
rfoot -2.00904 -6.65741
rtoes -17.5426
lfemur -62.8986 18.1809 -8.45143
ltibia 70.4124
lfoot -13.325 -7.7057
ltoes -15.4485
554
root 5.43359 17.4949 -7.1853 23.5034 -30.5342 -18.6627
lowerback 9.939 1.03279 4.37517
upperback -0.419953 2.27451 7.58925
thorax -6.19649 1.07159 5.23484
lowerneck -6.89238 -7.81952 -16.3138
upperneck 23.9899 -14.2448 21.3868
head 11.7559 -6.22932 9.01943
rclavicle 3.26007e-014 -1.5704e-014
rhumerus -3.65352 -2.85847 -57.407
rradius 78.6042
rwrist -19.3038
rhand -15.3956 19.8005
rfingers 7.12502
rthumb 10.7832 -9.90271
lclavicle 3.26007e-014 -1.5704e-014
lhumerus -16.5204 40.143 20.2049
lradius 28.917
lwrist -9.69281
lhand -3.42691 37.3091
lfingers 7.12502
lthumb 22.3042 66.0419
rfemur 0.44701 0.0115378 26.9928
rtibia 31.6864
rfoot 2.62808 -5.90669
rtoes -12.0262
lfemur -62.2406 17.7758 -7.84983
ltibia 66.8893
lfoot -11.9616 -7.87104
ltoes -16.0425
555
root 5.35187 17.5962 -6.88998 23.5701 -30.4781 -19.1777
lowerback 9.47805 1.15113 4.73874
upperback -0.37758 2.43514 7.84966
thorax -5.89793 1.14277 5.28856
lowerneck -6.78397 -8.03057 -16.1926
upperneck 24.1536 -14.548 21.1018
head 11.8331 -6.38048 8.83647
rclavicle 4.33351e-014 -5.52621e-014
rhumerus -2.5227 -2.35147 -56.7604
rradius 79.4327
rwrist -19.7096
rhand -16.2337 20.4419
rfingers 7.12502
rthumb 9.97473 -9.30173
lclavicle 4.33351e-014 -5.52621e-014
lhumerus -18.2733 39.8918 18.2956
lradius 29.5953
lwrist -7.78563
lhand -4.02935 38.6373
lfingers 7.12502
lthumb 21.7258 67.4381
rfemur 2.32973 -0.0937795 26.6385
rtibia 28.7168
rfoot 8.46722 -6.67732
rtoes -1.81862
lfemur -61.4531 17.3151 -7.22202
ltibia 63.2593
lfoot -10.2041 -7.78657
ltoes -15.7955
556
root 5.26801 17.696 -6.60093 23.4401 -30.4122 -19.3878
lowerback 9.16599 1.32396 4.74074
upperback -0.44426 2.65161 8.04669
thorax -5.81576 1.25348 5.47357
lowerneck -6.4715 -8.28869 -16.0738
upperneck 24.2893 -14.9573 20.8664
head 11.8863 -6.5892 8.66155
rclavicle -3.80673e-014 -2.3059e-014
rhumerus -1.62193 -2.00174 -56.1468
rradius 80.0118
rwrist -19.984
rhand -16.9901 21.0264
rfingers 7.12502
rthumb 9.24485 -8.75091
lclavicle -3.80673e-014 -2.3059e-014
lhumerus -19.7056 39.8413 16.5561
lradius 30.0233
lwrist -6.51181
lhand -4.2495 39.1094
lfingers 7.12502
lthumb 21.5144 67.9345
rfemur 4.03869 0.143855 26.1639
rtibia 25.8201
rfoot 15.6603 -9.68337
rtoes 10.5704
lfemur -60.5139 16.7959 -6.85261
ltibia 59.5008
lfoot -8.00602 -7.51211
ltoes -17.5034
557
root 5.18077 17.7885 -6.27172 23.3655 -30.4102 -19.7077
lowerback 8.59126 1.51497 4.91209
upperback -0.594139 2.89292 8.30899
thorax -5.67159 1.37259 5.63639
lowerneck -6.01109 -8.53359 -16.2106
upperneck 24.5166 -15.3856 20.7554
head 11.9849 -6.82991 8.59709
rclavicle 2.36554e-014 3.4191e-014
rhumerus -1.02805 -1.40669 -55.3827
rradius 80.4791
rwrist -20.4078
rhand -17.9363 21.7148
rfingers 7.12502
rthumb 8.33183 -8.10087
lclavicle 2.36554e-014 3.4191e-014
lhumerus -21.1622 39.9383 14.7991
lradius 30.2124
lwrist -5.99985
lhand -3.92042 37.9334
lfingers 7.12502
lthumb 21.8304 66.7221
rfemur 5.87824 -0.24356 25.4309
rtibia 23.1205
rfoot 18.8765 -8.79517
rtoes 10.8343
lfemur -59.2957 16.2771 -6.3492
ltibia 55.7561
lfoot -5.62408 -7.023
ltoes -15.8328
558
root 5.09579 17.8738 -5.95812 23.1169 -30.2742 -19.8605
lowerback 8.28503 1.4559 4.81125
upperback -0.804418 2.81231 8.75297
thorax -5.74792 1.34289 6.19755
lowerneck -5.53118 -8.55722 -16.7507
upperneck 24.9553 -15.4263 20.4971
head 12.0888 -6.94474 8.62721
rclavicle -4.56211e-014 3.97569e-016
rhumerus -0.129546 -0.352021 -54.6346
rradius 80.8111
rwrist -20.6386
rhand -18.5464 22.3445
rfingers 7.12502
rthumb 7.74294 -7.49369
lclavicle -4.56211e-014 3.97569e-016
lhumerus -23.4962 39.8247 12.4403
lradius 30.3849
lwrist -5.46143
lhand -2.65906 35.6302
lfingers 7.12502
lthumb 23.0411 64.2728
rfemur 7.82745 -0.898193 24.5748
rtibia 20.8784
rfoot 21.8605 -8.19307
rtoes 12.1624
lfemur -58.0028 15.5303 -5.84911
ltibia 51.9343
lfoot -3.1183 -6.14267
ltoes -14.1015
559
root 5.0121 17.95 -5.65861 22.6922 -30.0419 -19.892
lowerback 8.01056 1.35484 4.74987
upperback -0.917199 2.66749 9.09772
thorax -5.72382 1.27898 6.63629
lowerneck -5.23465 -8.57097 -17.0833
upperneck 25.4488 -15.4194 20.0748
head 12.2063 -7.01983 8.55272
rclavicle -2.80286e-014 3.33958e-014
rhumerus 0.779734 0.212564 -54.0758
rradius 81.0221
rwrist -20.4206
rhand -18.5011 22.6571
rfingers 7.12502
rthumb 7.78668 -7.17951
lclavicle -2.80286e-014 3.33958e-014
lhumerus -25.4076 39.2256 10.3892
lradius 30.6317
lwrist -3.96167
lhand -2.61266 35.4583
lfingers 7.12502
lthumb 23.0857 64.0953
rfemur 9.86545 -1.43097 23.7641
rtibia 19.1274
rfoot 24.5584 -8.08018
rtoes 13.565
lfemur -56.689 14.6977 -5.38689
ltibia 48.1935
lfoot -0.700815 -4.91131
ltoes -13.2831
560
root 4.9261 18.0114 -5.36113 22.2772 -30.057 -19.9965
lowerback 7.72917 1.3674 4.58366
upperback -1.01923 2.6625 9.41931
thorax -5.69839 1.28815 7.09244
lowerneck -4.96582 -8.59384 -17.3153
upperneck 25.9212 -15.4411 19.6754
head 12.3234 -7.0967 8.46151
rclavicle 5.40694e-014 -3.73715e-014
rhumerus 1.42275 0.768619 -53.4582
rradius 81.2705
rwrist -20.2631
rhand -18.4376 22.788
rfingers 7.12502
rthumb 7.848 -7.04635
lclavicle 5.40694e-014 -3.73715e-014
lhumerus -26.904 37.9249 8.90622
lradius 31.0836
lwrist -1.45866
lhand -4.34575 36.6907
lfingers 7.12502
lthumb 21.4219 65.5264
rfemur 11.7011 -1.35522 23.0696
rtibia 18.133
rfoot 27.0412 -8.25927
rtoes 14.5275
lfemur -55.278 14.0916 -4.90236
ltibia 44.6352
lfoot 1.5492 -3.33256
ltoes -12.1447
